<?xml version="1.0" encoding="UTF-8"?>
<svg width="512px" height="512px" viewBox="0 0 512 512" version="1.1" xmlns="http://www.w3.org/2000/svg" xmlns:xlink="http://www.w3.org/1999/xlink">
    <!-- Generator: Sketch 42 (36781) - http://www.bohemiancoding.com/sketch -->
    <title>cart</title>
    <desc>Created with Sketch.</desc>
    <defs></defs>
    <g id="Page-1" stroke="none" stroke-width="1" fill="none" fill-rule="evenodd">
        <g id="cart" fill-rule="nonzero" fill="#000000">
            <g transform="translate(0.000000, 11.000000)" id="icon/cart/white">
                <path d="M108.52193,442.435559 C108.52193,465.392121 127.304571,484.174763 150.261133,484.174763 C173.217695,484.174763 192.000337,465.392121 192.000337,442.435559 C192.000337,419.478997 173.217695,400.696356 150.261133,400.696356 C127.304571,400.696356 108.52193,419.478997 108.52193,442.435559 Z M375.652833,442.435559 C375.652833,465.392121 394.435475,484.174763 417.392037,484.174763 C440.348599,484.174763 459.131241,465.392121 459.131241,442.435559 C459.131241,419.478997 440.348599,400.696356 417.392037,400.696356 C394.435475,400.696356 375.652833,419.478997 375.652833,442.435559 Z M146.869823,50.0870445 C137.739372,21.3913419 109.82628,0 77.7392669,0 L0,0 L0,41.7392037 L77.7392669,41.7392037 C94.1740784,41.7392037 108.52193,55.3044449 108.52193,70.4349063 L108.52193,308.609236 C108.52193,346.957131 138.261112,375.652833 177.913356,375.652833 L459.131241,375.652833 L459.131241,333.91363 L177.913356,333.91363 C160.956804,333.91363 150.261133,324.000569 150.261133,308.609236 L150.261133,91.8262482 L447.392089,91.8262482 C444.261648,133.304582 439.56599,190.956857 437.218159,205.565578 C434.870328,220.69604 420.783349,231.913452 400.174616,234.52215 C376.696314,237.913461 255.391752,251.739574 200.348178,258.522192 L200.348178,300.522267 C252.783054,294.261386 381.131105,279.391794 405.652885,276.000485 C444.783391,270.522215 473.479091,245.478693 478.435623,211.826459 C482.087803,188.348157 490.435644,77.2175269 490.696515,72.5218665 L492.522604,50.0870445 L146.869823,50.0870445 Z"></path>
            </g>
        </g>
    </g>
</svg>