<?xml version="1.0" encoding="UTF-8"?>
<svg width="512px" height="512px" viewBox="0 0 512 512" version="1.1" xmlns="http://www.w3.org/2000/svg" xmlns:xlink="http://www.w3.org/1999/xlink">
    <!-- Generator: Sketch 42 (36781) - http://www.bohemiancoding.com/sketch -->
    <title>required</title>
    <desc>Created with Sketch.</desc>
    <defs></defs>
    <g id="Page-1" stroke="none" stroke-width="1" fill="none" fill-rule="evenodd">
        <g id="required" fill-rule="nonzero" fill="#000000">
            <g transform="translate(26.000000, 0.000000)" id="icon/required">
                <g>
                    <g id="Symbols">
                        <g id="icon/required" transform="translate(-0.000000, 0.000000)">
                            <path d="M204.146214,512 L256.653786,512 C267.155299,512 274.156309,504.788732 274.156309,493.971831 L272.406056,333.521127 L407.175489,414.647887 C415.92675,421.859155 426.428264,418.253521 431.679022,409.239437 L457.932807,358.760563 C463.183564,349.746479 461.433312,338.929577 450.931798,333.521127 L317.912618,257.802817 L450.931798,178.478873 C461.433312,173.070423 463.183564,162.253521 457.932807,153.239437 L431.679022,102.760563 C426.428264,93.7464791 415.92675,90.1408451 407.175489,97.3521126 L272.406056,180.28169 L274.156309,18.028169 C274.156309,7.21126758 267.155299,0 256.653786,0 L204.146214,0 C193.644701,0 186.643691,7.21126758 186.643691,18.028169 L186.643691,180.28169 L53.6245115,97.3521126 C44.8732498,90.1408451 34.3717357,93.7464791 29.1209785,102.760563 L2.86719315,153.239437 C-2.38356393,162.253521 -0.63331157,173.070423 9.8682026,178.478873 L142.887382,257.802817 L9.8682026,333.521127 C-0.63331157,338.929577 -2.38356393,349.746479 2.86719315,358.760563 L29.1209785,409.239437 C34.3717357,418.253521 44.8732498,421.859155 53.6245115,414.647887 L186.643691,333.521127 L186.643691,493.971831 C186.643691,504.788732 193.644701,512 204.146214,512 Z" id="icon/required-field"></path>
                        </g>
                    </g>
                </g>
            </g>
        </g>
    </g>
</svg>