<?xml version="1.0" encoding="UTF-8"?>
<svg width="512px" height="512px" viewBox="0 0 512 512" version="1.1" xmlns="http://www.w3.org/2000/svg" xmlns:xlink="http://www.w3.org/1999/xlink">
    <!-- Generator: Sketch 42 (36781) - http://www.bohemiancoding.com/sketch -->
    <title>search</title>
    <desc>Created with Sketch.</desc>
    <defs></defs>
    <g id="Page-1" stroke="none" stroke-width="1" fill="none" fill-rule="evenodd">
        <g id="search" fill-rule="nonzero" fill="#000000">
            <g id="grey">
                <g id="icon/menu/search/grey">
                    <g id="Symbols">
                        <g id="icon/menu/search/grey">
                            <path d="M346.325573,382.529439 L468.298066,504.501934 L504.501934,468.298066 L382.529439,346.325573 C411.148332,309.920829 428.218181,264.008399 428.218181,214.109091 C428.218181,95.8599053 332.358277,0 214.109091,0 C95.8599053,0 0,95.8599053 0,214.109091 C0,332.358277 95.8599053,428.218181 214.109091,428.218181 C264.008399,428.218181 309.920829,411.148332 346.325573,382.529439 Z M214.109091,377.018181 C124.136884,377.018181 51.2,304.081298 51.2,214.109091 C51.2,124.136884 124.136884,51.2 214.109091,51.2 C304.081298,51.2 377.018181,124.136884 377.018181,214.109091 C377.018181,304.081298 304.081298,377.018181 214.109091,377.018181 Z" id="icon/menu/search"></path>
                        </g>
                    </g>
                </g>
            </g>
        </g>
    </g>
</svg>