<?xml version="1.0" encoding="UTF-8"?>
<svg width="512px" height="512px" viewBox="0 0 512 512" version="1.1" xmlns="http://www.w3.org/2000/svg" xmlns:xlink="http://www.w3.org/1999/xlink">
    <!-- Generator: Sketch 42 (36781) - http://www.bohemiancoding.com/sketch -->
    <title>twitter</title>
    <desc>Created with Sketch.</desc>
    <defs></defs>
    <g id="Page-1" stroke="none" stroke-width="1" fill="none" fill-rule="evenodd">
        <g id="twitter" fill-rule="nonzero" fill="#000000">
            <g transform="translate(0.000000, 57.000000)" id="Twitter">
                <path d="M484.605297,46.6201844 C466.77073,54.5276959 447.599281,59.8752216 427.517616,62.2645416 C448.05439,49.9766102 463.812524,30.4922744 471.208039,7.28173717 C451.979701,18.6594515 430.73182,26.9367387 408.061724,31.3740472 C389.971158,12.0603772 364.086858,2.84217094e-14 335.500351,2.84217094e-14 C280.631324,2.84217094e-14 236.087572,44.5153073 236.087572,99.4127789 C236.087572,107.206513 236.940901,114.772693 238.647558,122.05443 C156.045352,117.901565 82.801316,78.3640074 33.734923,18.1474543 C25.1731929,32.8815944 20.2807758,49.9766102 20.2807758,68.1809531 C20.2807758,102.655427 37.8309001,133.090813 64.5116402,150.92538 C48.2130644,150.441828 32.8531501,145.919186 19.4558915,138.523672 L19.4558915,139.746776 C19.4558915,187.931396 53.7028116,228.123172 99.2136689,237.225344 C90.8794931,239.557775 82.0902088,240.723991 73.0164817,240.723991 C66.6165173,240.723991 60.3587745,240.126661 54.3285859,238.960445 C66.9578488,278.441114 103.679422,307.226731 147.170735,307.966282 C113.151369,334.647022 70.2858302,350.547378 23.7225344,350.547378 C15.6728015,350.547378 7.76529002,350.09227 0,349.182052 C44.0033101,377.341895 96.2554632,393.811137 152.404483,393.811137 C335.301241,393.811137 435.254461,242.345315 435.254461,110.961159 C435.254461,106.637627 435.169128,102.314096 434.998463,98.0758974 C454.42591,84.0528645 471.321816,66.5596288 484.605297,46.6201844"></path>
            </g>
        </g>
    </g>
</svg>