<?xml version="1.0" encoding="UTF-8"?>
<svg width="512px" height="512px" viewBox="0 0 512 512" version="1.1" xmlns="http://www.w3.org/2000/svg" xmlns:xlink="http://www.w3.org/1999/xlink">
    <!-- Generator: Sketch 42 (36781) - http://www.bohemiancoding.com/sketch -->
    <title>video</title>
    <desc>Created with Sketch.</desc>
    <defs></defs>
    <g id="Page-1" stroke="none" stroke-width="1" fill="none" fill-rule="evenodd">
        <g id="video" fill="#000000" fill-rule="nonzero">
            <g transform="translate(0.000000, 90.000000)">
                <path d="M511.999981,11.0933329 C511.999981,6.77925902 509.629611,2.46518509 505.481464,0.616296274 C501.333314,-0.616296274 496.592573,0 493.629611,3.08148136 L383.999986,117.712588 L383.999986,33.2799988 C383.999986,14.7911106 369.777763,0 351.999987,0 L31.9999988,0 C14.2222217,0 0,14.7911106 0,33.2799988 L0,299.519989 C0,318.008877 14.2222217,332.799988 31.9999988,332.799988 L351.999987,332.799988 C369.777763,332.799988 383.999986,318.008877 383.999986,299.519989 L383.999986,215.087399 L493.629611,329.718506 C495.999982,331.567396 498.370352,332.799988 501.333314,332.799988 C502.518499,332.799988 504.296278,332.799988 505.481464,332.183691 C509.629611,330.334803 511.999981,326.020729 511.999981,321.706656 L511.999981,11.0933329 Z"></path>
            </g>
        </g>
    </g>
</svg>